<svg data-v-423bf9ae="" xmlns="http://www.w3.org/2000/svg" viewBox="0 0 553 94" class="iconLeft"><!----><!----><!----><g data-v-423bf9ae="" id="5da2e9da-92a1-44d9-a607-66469afbc7e1" fill="black" transform="matrix(5.671077545620877,0,0,5.671077545620877,105.24840938695306,15.87698902917231)"><path d="M8.37 10.50L8.37 10.50L6.05 6.37C8.99 5.52 8.64 0.49 5.07 0.49L1.12 0.49L1.12 10.50L3.12 10.50L3.12 6.68L4.09 6.68L6.10 10.50ZM3.12 2.49L4.89 2.49C6.24 2.49 6.24 4.73 4.89 4.73L3.12 4.73L3.12 4.73ZM11.70 10.50L11.70 0.49L9.70 0.49L9.70 10.50L11.70 10.50L11.70 10.50ZM17.51 10.71L21.66 0.49L19.35 0.49L18.00 3.89L17.29 5.89L16.56 3.82L15.23 0.49L12.92 0.49L17.07 10.71ZM28.06 10.50L28.06 10.50L28.06 8.50L24.88 8.50L24.88 6.50L27.51 6.50L27.51 4.49L24.88 4.49L24.88 2.49L27.89 2.49L27.89 0.49L22.88 0.49L22.88 10.50L28.06 10.50ZM37.18 10.50L37.18 10.50L34.86 6.37C37.80 5.52 37.45 0.49 33.88 0.49L29.93 0.49L29.93 10.50L31.93 10.50L31.93 6.68L32.90 6.68L34.92 10.50ZM31.93 2.49L33.70 2.49C35.06 2.49 35.06 4.73 33.70 4.73L31.93 4.73L31.93 4.73ZM42.17 10.50L42.17 2.49L44.66 2.49L44.66 0.50L37.67 0.50L37.67 2.49L40.17 2.49L40.17 10.50L42.17 10.50L42.17 10.50ZM53.42 10.50L53.42 10.50L51.10 6.37C54.04 5.52 53.69 0.49 50.12 0.49L46.17 0.49L46.17 10.50L48.17 10.50L48.17 6.68L49.14 6.68L51.16 10.50ZM48.17 2.49L49.94 2.49C51.30 2.49 51.30 4.73 49.94 4.73L48.17 4.73L48.17 4.73ZM53.86 10.50L56.13 10.50L56.52 9.42L59.84 9.42L60.24 10.50L62.50 10.50L58.28 0.13L58.07 0.13L53.86 10.50L53.86 10.50ZM57.25 7.55L58.18 4.94L59.09 7.55L57.25 7.55L57.25 7.55ZM66.88 0.49L63.90 0.49L63.90 10.50L66.88 10.50C73.54 10.50 73.54 0.49 66.88 0.49L66.88 0.49ZM66.88 2.49C70.77 2.49 70.77 8.50 66.88 8.50L65.90 8.50L65.90 2.49L66.88 2.49L66.88 2.49ZM78.93 10.50L78.93 10.50L78.93 8.50L75.75 8.50L75.75 6.50L78.39 6.50L78.39 4.49L75.75 4.49L75.75 2.49L78.76 2.49L78.76 0.49L73.75 0.49L73.75 10.50L78.93 10.50Z"></path></g><!----><g data-v-423bf9ae="" id="61215b82-cdf7-4862-a4bd-08e1a93d6c25" transform="matrix(1.017777845594618,0,0,1.017777845594618,-4.888892279730904,-3.6888953823515394)" stroke="none" fill="black"><style>.st0{fill-rule:evenodd;clip-rule:evenodd;fill:#231f20}</style><path class="st0" d="M46.2 95.8L5 81V20.5l41.2 14.1zM53.8 95.8L95 81V20.5L53.8 34.6zM9.2 16L51 4.2l38.7 12.5L51 29.9z"></path></g><!----></svg>